# xmcd
# 
# Track frame offsets:
#   150
#   19928
#   35748
#   53420
#   71317
#   88018
#   104333
#   123212
#   141878
#   158986
#   176032
#   193266
#   206496
#   222854
# 
# Disc length: 3165 seconds
# 
# Revision: 2
# Processed by: cddbd v1.5.2PL0 Copyright (c) Steve Scherf et al.
# Submitted via: Synapstar 1.0 
# 
DISCID=c70c5b0e
DTITLE=Various Artist - SD118
DYEAR=1900
DGENRE=Country
TTITLE0=Paisley, Brad and Alison Krauss - Whiskey Lullaby
TTITLE1=Wilson, Gretchen - Redneck Woman
TTITLE2=Nichols, Joe - If Nobody Believed In You
TTITLE3=Keith, Toby - Whiskey Girl
TTITLE4=Shelton, Blake - When Somebody Knows You That Well
TTITLE5=Proctor, Rachel - Me And Emily
TTITLE6=Wayne, Jimmy - You Are
TTITLE7=Roberts, Julie - Break Down Here
TTITLE8=Prather, Colt - I Won't Go On And On
TTITLE9=Wright, Chely - Back Of The Bottom Drawer
TTITLE10=Gracin, Josh - I Want To Live
TTITLE11=Emerick, Scotty - Coast Is Clear, The
TTITLE12=Gill, Vince - In These Last Few Days
TTITLE13=Byrd, Tracy - How'd I Wind Up In Jamaica
EXTD=MediaType: Karaoke CD+G Producer: StarDisc
EXTT0=
EXTT1=
EXTT2=
EXTT3=
EXTT4=
EXTT5=
EXTT6=
EXTT7=
EXTT8=
EXTT9=
EXTT10=
EXTT11=
EXTT12=
EXTT13=
PLAYORDER=
